<svg height="512" viewBox="0 0 58 58" width="512" xmlns="http://www.w3.org/2000/svg"><g id="Page-1" fill="none" fill-rule="evenodd"><g id="018---Skull-Flag"><path id="Shape" d="m4 1v3h-3.5c-.27614237 0-.5.22385763-.5.5v-3.5c0-.55228475.44771525-1 1-1h2c.55228475 0 1 .44771525 1 1z" fill="#b08f46" fill-rule="nonzero"/><path id="Shape" d="m4 50v7c0 .5522847-.44771525 1-1 1h-2c-.55228475 0-1-.4477153-1-1v-7.5c0 .2761424.22385763.5.5.5z" fill="#b08f46" fill-rule="nonzero"/><path id="Shape" d="m4 7v40" stroke="#000" stroke-linecap="round" stroke-linejoin="round" stroke-width="2"/><g fill-rule="nonzero"><path id="Shape" d="m55.35 15.65c-.1905714.1944218-.1905714.5055782 0 .7l2.5 2.5c.0959062.0952631.1498891.2248222.15.36v1.58c-.0001109.1351778-.0540938.2647369-.15.36l-3.5 3.5c-.1905714.1944218-.1905714.5055782 0 .7l3.5 3.5c.0959062.0952631.1498891.2248222.15.36v6.48c-.0023956.1903958-.1102511.3637351-.28.45l-4.26 2.13c-.2759671.1386881-.4501363.4211436-.4501363.73s.1741692.5913119.4501363.73l4.26 2.13c.1697489.0862649.2776044.2596042.28.45v9.19c0 .2761424-.2238576.5-.5.5h-35.29c-.1351778-.0001109-.2647369-.0540938-.36-.15l-2.5-2.5c-.1944218-.1905714-.5055782-.1905714-.7 0l-2.5 2.5c-.0952631.0959062-.2248222.1498891-.36.15h-15.29c-.27614237 0-.5-.2238576-.5-.5v-47c0-.27614237.22385763-.5.5-.5h43.29c.1351778.00011086.2647369.05409382.36.15l2.5 2.5c.1944218.19057144.5055782.19057144.7 0l2.5-2.5c.0952631-.09590618.2248222-.14988914.36-.15h7.29c.2761424 0 .5.22385763.5.5v8.29c-.0001109.1351778-.0540938.2647369-.15.36z" fill="#464f5d"/><path id="Shape" d="m19.95 37.95-3.96 2.93c.6710925.787523.7877179 1.9070727.293348 2.8160039s-1.4975693 1.4194055-2.523348 1.2839961c-1.3938668-.06805-2.4731839-1.2454869-2.42-2.64-.0003085-.147188.0097162-.294216.03-.44-1.42814554-.1463698-2.47504912-1.4109637-2.35221271-2.8413255.12283642-1.4303619 1.37002231-2.4979443 2.80221271-2.3986745.6988829.0905226 1.3270999.4718104 1.73 1.05l4.48-3.31z" fill="#ebeff0"/><path id="Shape" d="m39.1 18.52 4.07-2.62c-.4018213-.580073-.53647-1.3042647-.37-1.99.3327282-1.329069 1.6616057-2.152973 3-1.86 1.2632408.1752583 2.1907358 1.2753105 2.15 2.55.0002699.2494127-.0299543.497923-.09.74.7378973.1243109 1.3855217.5627505 1.7750215 1.2016836s.4825298 1.4154588.2549785 2.1283164c-.239238 1.0043127-1.0712222 1.7582658-2.0941693 1.8977586-1.022947.1394927-2.0264244-.3641701-2.5258307-1.2677586l-4.59 2.96z" fill="#ebeff0"/><path id="Shape" d="m17.32 22.26-4.59-2.96c-.4994063.9035885-1.5028837 1.4072513-2.5258307 1.2677586-1.02294706-.1394928-1.85493134-.8934459-2.0941693-1.8977586-.0683489-.2681413-.10526381-.5433252-.11-.82.01313144-1.243846.91388202-2.3003338 2.14-2.51-.21901212-.7122069-.1176263-1.4844422.2778045-2.1159796.3954307-.6315374 1.0458501-1.0600009 1.7821955-1.1740204 1.3383943-.292973 2.6672718.530931 3 1.86.16647.6857353.0318213 1.409927-.37 1.99l4.07 2.62z" fill="#ebeff0"/><path id="Shape" d="m39.97 34.4 4.48 3.31c.4029001-.5781896 1.0311171-.9594774 1.73-1.05 1.3600799-.1544917 2.5981162.7961433 2.8 2.15.030632.1817947.0473472.3656618.05.55-.0117821 1.3443692-1.0584559 2.4520989-2.4 2.54.1457231.7335754-.0339283 1.4942917-.4924357 2.0851716-.4585075.5908799-1.1507805.9538151-1.8975643.9948284-1.0257787.1354094-2.0289781-.3750649-2.523348-1.2839961s-.3777445-2.0284809.293348-2.8160039l-3.96-2.93z" fill="#ebeff0"/><path id="Shape" d="m39.22 31.31c.5089275.8049639.7793714 1.7376483.78 2.69.0003155.1339069-.0097144.2676381-.03.4-.1014686 1.403867-.8006604 2.6966435-1.92 3.55-.0113164.0212734-.0287266.0386836-.05.05-.8545169.6409597-1.8918452.9914084-2.96 1-.2711476-.0075228-.5339652.0941205-.7294926.2821277-.1955274.1880071-.3073953.4466382-.3105074.7178723v1c-.0032948 1.1032019-.8967981 1.9967052-2 2h-2v-2c0-.5522847-.4477153-1-1-1s-1 .4477153-1 1v2h-2c-1.1032019-.0032948-1.9967052-.8967981-2-2v-1.01c.0000133-.2669582-.1067151-.5228394-.2964199-.7106659-.1897047-.1878265-.4466352-.2920037-.7135801-.2893341h-.08c-1.0515239-.0067004-2.0725476-.354059-2.91-.99-.0212734-.0113164-.0386836-.0287266-.05-.05-1.1193396-.8533565-1.8185314-2.146133-1.92-3.55-.0202856-.1323619-.0303155-.2660931-.03-.4.0006286-.9523517.2710725-1.8850361.78-2.69-1.1693133-1.8965563-1.7857965-4.0819548-1.78-6.31.004065-2.2967553.6631844-4.5446994 1.9-6.48 2.2069772-3.4399037 6.0129857-5.5200309 10.1-5.5200309s7.8930228 2.0801272 10.1 5.5200309c1.2368156 1.9353006 1.895935 4.1832447 1.9 6.48.0057965 2.2280452-.6106867 4.4134437-1.78 6.31z" fill="#d0d3d0"/><path id="Shape" d="m27 27c0 1.6568542-1.3431458 2.9999999-3 2.9999999s-3-1.3431457-3-2.9999999c0-1.657 1.343-2 3-2s3 .343 3 2z" fill="#464f5d"/><path id="Shape" d="m37 27c0 1.6568542-1.3431458 3-3 3s-3-1.3431458-3-3c0-1.657 1.343-2 3-2s3 .343 3 2z" fill="#464f5d"/><path id="Shape" d="m22.073 22c-.1757122.0003089-.3483214-.0462955-.5-.135-.4775427-.2768352-.6404654-.8882432-.364-1.366 1.6129213-2.7776703 4.5790077-4.49047 7.791-4.499.5522847 0 1 .4477153 1 1s-.4477153 1-1 1c-2.4986206.0071827-4.8058328 1.3395111-6.061 3.5-.1786283.3093932-.5087435.4999909-.866.5z" fill="#ebeff0"/><path id="Shape" d="m31 36c-.2651948-.0000566-.5195073-.1054506-.707-.293l-1.293-1.293-1.293 1.293c-.3923789.3789722-1.0160848.3735524-1.4018186-.0121814s-.3911536-1.0094397-.0121814-1.4018186l2-2c.3904999-.3903819 1.0235001-.3903819 1.414 0l2 2c.2859079.2859943.3714219.7160366.216678 1.0896546-.1547439.3736179-.5192821.6172591-.923678.6173454z" fill="#464f5d"/></g></g></g></svg>